<?xml version="1.0" standalone="no"?><!DOCTYPE svg PUBLIC "-//W3C//DTD SVG 1.1//EN" "http://www.w3.org/Graphics/SVG/1.1/DTD/svg11.dtd"><svg t="1577787222409" class="icon" viewBox="0 0 1024 1024" version="1.1" xmlns="http://www.w3.org/2000/svg" p-id="3645" xmlns:xlink="http://www.w3.org/1999/xlink" width="81" height="81"><defs><style type="text/css"></style></defs><path d="M640 336H384a48 48 0 0 0-48 48v256a48 48 0 0 0 48 48h256a48 48 0 0 0 48-48V384a48 48 0 0 0-48-48zM512 0C229.232 0 0 229.232 0 512s229.232 512 512 512 512-229.232 512-512S794.768 0 512 0z m0 928C282.256 928 96 741.744 96 512S282.256 96 512 96s416 186.24 416 416c0 229.744-186.256 416-416 416z" fill="#8EA3B4" p-id="3646"></path></svg>