<?xml version="1.0" standalone="no"?><!DOCTYPE svg PUBLIC "-//W3C//DTD SVG 1.1//EN" "http://www.w3.org/Graphics/SVG/1.1/DTD/svg11.dtd"><svg t="1577695793959" class="icon" viewBox="0 0 1024 1024" version="1.1" xmlns="http://www.w3.org/2000/svg" p-id="5271" xmlns:xlink="http://www.w3.org/1999/xlink" width="81" height="81"><defs><style type="text/css"></style></defs><path d="M923.477263 289.667719H675.338432a166.449503 166.449503 0 0 0-38.393585-76.875136L760.642403 54.300092a33.379467 33.379467 0 0 0-52.620243-41.072579L583.72483 172.479719A165.87372 165.87372 0 0 0 511.807832 156.157848c-25.750332 0-50.141174 5.861799-71.932991 16.313874L315.593505 13.227513a33.379467 33.379467 0 1 0-52.620243 41.072579l123.697555 158.500488a166.449503 166.449503 0 0 0-38.401581 76.867139H100.138401C44.919134 289.667719 0 334.586853 0 389.80612v534.055479C0 979.080866 44.919134 1024 100.138401 1024h823.338862c55.219267 0 100.138401-44.919134 100.138401-100.138401V389.80612c0-55.219267-44.919134-100.138401-100.138401-100.138401zM511.807832 222.908785c43.51966 0 80.641722 27.909521 94.412551 66.758934H417.387284c13.778826-38.85741 50.900888-66.758934 94.420548-66.758934z m445.048898 700.952814a33.419452 33.419452 0 0 1-33.379467 33.379467H100.138401a33.419452 33.419452 0 0 1-33.379467-33.379467V389.80612a33.419452 33.419452 0 0 1 33.379467-33.379467h823.338862a33.419452 33.419452 0 0 1 33.379467 33.379467v534.055479zM589.69059 423.185587H233.648272c-55.21127 0-100.130404 44.919134-100.130404 100.130404v267.035737c0 55.21127 44.919134 100.130404 100.130404 100.130404H589.698587c55.219267 0 100.138401-44.919134 100.138401-100.130404V523.307994c0-55.21127-44.927131-100.130404-100.138401-100.130404z m33.379467 367.166141a33.419452 33.419452 0 0 1-33.379467 33.379467H233.648272a33.419452 33.419452 0 0 1-33.379467-33.379467V523.307994a33.419452 33.419452 0 0 1 33.379467-33.379467H589.698587a33.419452 33.419452 0 0 1 33.379467 33.379467v267.035737z m200.268805-233.65627a33.379467 33.379467 0 1 0 0-66.758934 33.379467 33.379467 0 0 0 0 66.758934z m0 133.517868a33.379467 33.379467 0 1 0 0-66.758934 33.379467 33.379467 0 0 0 0 66.758934z m33.379467 66.758935h-66.758934a33.379467 33.379467 0 0 0 0 66.758934h66.758934a33.379467 33.379467 0 0 0 0-66.758934z" fill="#20A0FF" p-id="5272"></path></svg>